<svg width="358" height="91" viewBox="0 0 358 91" xmlns="http://www.w3.org/2000/svg" xmlns:sketch="http://www.bohemiancoding.com/sketch/ns"><title>Rabbit 8 + HASHRABBIT 9 + Software to secure B</title><desc>Created with Sketch.</desc><g sketch:type="MSLayerGroup" fill="none"><path d="M1.502 7.374l2.31 14.72 12.922 2.317-15.233-17.037zm17.421-7.415v22.782l-8.015-9.2 8.015-13.582zm.14 25.145l16.151 8.671-2.217 5.557-6.301 1.096 2.257 19.579h-22.524l12.635-34.904zm-16.627 26.224l3.955 1.922-2.096 5.777-4.307-2.288 2.448-5.411zm53.718 6.982h2.012v-14.319h18.146v14.319h2.012v-28.394h-2.012v12.169h-18.146v-12.169h-2.012v28.394zm31.913 0h2.092l3.702-8.275h15.732l3.702 8.275h2.092l-12.714-28.557h-1.851l-12.754 28.557zm6.518-10.06l7.162-15.86 7.122 15.86h-14.283zm38.511 10.546c5.351 0 10.179-2.718 10.179-7.95 0-5.395-4.828-6.977-9.334-8.275-4.627-1.339-8.288-2.312-8.288-6.044 0-2.677 2.213-5.152 7.443-5.152 3.339 0 6.196 1.014 8.49 2.596v-2.15c-2.253-1.46-5.19-2.393-8.57-2.393-6.236 0-9.375 3.245-9.375 7.058 0 4.989 3.983 6.368 9.174 7.869 4.587 1.298 8.409 2.312 8.409 6.49 0 3.732-3.541 6.044-8.288 6.044-4.426 0-8.288-1.825-10.139-3.448v2.312c1.972 1.541 5.834 3.042 10.3 3.042zm21.251-.487h2.012v-14.319h18.146v14.319h2.012v-28.394h-2.012v12.169h-18.146v-12.169h-2.012v28.394zm34.77 0h2.012v-13.264h9.858s2.683 2.772 4.016 5.277c1.225 2.303 2.76 7.988 2.76 7.988h2.334s-1.426-4.895-3.325-8.659c-1.899-3.765-3.491-4.767-3.491-4.767 4.506-.527 6.961-3.448 6.961-7.464 0-4.462-3.098-7.504-8.61-7.504h-12.513v28.394zm2.012-15.13v-11.398h10.34c4.265 0 6.759 2.069 6.759 5.679 0 3.691-2.495 5.719-6.759 5.719h-10.34zm28.936 15.13h2.092l3.702-8.275h15.732l3.702 8.275h2.092l-12.714-28.557h-1.851l-12.754 28.557zm6.518-10.06l7.162-15.86 7.122 15.86h-14.283zm30.464 10.06h13.237c5.794 0 9.093-3.164 9.093-7.869 0-4.178-2.414-6.977-6.397-7.585 2.414-.933 3.863-3.002 3.863-6.085 0-4.219-2.897-6.855-7.926-6.855h-11.869v28.394zm2.012-1.866v-12.372h10.904c4.627 0 7.242 2.231 7.242 6.166 0 3.975-2.615 6.206-7.242 6.206h-10.904zm0-14.157v-10.506h9.616c3.943 0 6.196 1.906 6.196 5.273s-2.253 5.233-6.196 5.233h-9.616zm31.148 16.023h13.237c5.794 0 9.093-3.164 9.093-7.869 0-4.178-2.414-6.977-6.397-7.585 2.414-.933 3.863-3.002 3.863-6.085 0-4.219-2.897-6.855-7.926-6.855h-11.869v28.394zm2.012-1.866v-12.372h10.904c4.627 0 7.242 2.231 7.242 6.166 0 3.975-2.615 6.206-7.242 6.206h-10.904zm0-14.157v-10.506h9.616c3.943 0 6.196 1.906 6.196 5.273s-2.253 5.233-6.196 5.233h-9.616zm31.43 16.023h2.012v-28.394h-2.012v28.394zm22.136 0h2.012v-26.528h10.059v-1.866h-22.129v1.866h10.059v26.528z" fill="#fff" sketch:type="MSShapeGroup"/><path d="M63.534 78.07c-.06.113-.147.17-.26.17-.087 0-.198-.062-.335-.185s-.322-.26-.555-.41c-.233-.15-.525-.288-.875-.415s-.782-.19-1.295-.19c-.513 0-.965.073-1.355.22-.39.147-.717.347-.98.6s-.463.547-.6.88c-.137.333-.205.683-.205 1.05 0 .48.102.877.305 1.19.203.313.472.58.805.8.333.22.712.405 1.135.555.423.15.858.298 1.305.445.447.147.882.308 1.305.485.423.177.802.398 1.135.665.333.267.602.595.805.985.203.39.305.875.305 1.455 0 .593-.102 1.152-.305 1.675-.203.523-.498.978-.885 1.365s-.86.692-1.42.915c-.56.223-1.2.335-1.92.335-.933 0-1.737-.165-2.41-.495-.673-.33-1.263-.782-1.77-1.355l.28-.44c.08-.1.173-.15.28-.15.06 0 .137.04.23.12l.34.295c.133.117.293.243.48.38s.403.263.65.38c.247.117.53.215.85.295.32.08.683.12 1.09.12.56 0 1.06-.085 1.5-.255.44-.17.812-.402 1.115-.695.303-.293.535-.642.695-1.045.16-.403.24-.835.24-1.295 0-.5-.102-.912-.305-1.235-.203-.323-.472-.593-.805-.81-.333-.217-.712-.398-1.135-.545-.423-.147-.858-.29-1.305-.43-.447-.14-.882-.297-1.305-.47-.423-.173-.802-.395-1.135-.665-.333-.27-.602-.607-.805-1.01-.203-.403-.305-.908-.305-1.515 0-.473.09-.93.27-1.37.18-.44.443-.828.79-1.165.347-.337.775-.607 1.285-.81.51-.203 1.092-.305 1.745-.305.733 0 1.392.117 1.975.35.583.233 1.115.59 1.595 1.07l-.24.46zm6.92 2.32c.713 0 1.352.122 1.915.365s1.038.588 1.425 1.035c.387.447.682.985.885 1.615.203.63.305 1.335.305 2.115 0 .78-.102 1.483-.305 2.11-.203.627-.498 1.163-.885 1.61-.387.447-.862.79-1.425 1.03-.563.24-1.202.36-1.915.36-.713 0-1.352-.12-1.915-.36s-1.04-.583-1.43-1.03c-.39-.447-.687-.983-.89-1.61-.203-.627-.305-1.33-.305-2.11 0-.78.102-1.485.305-2.115.203-.63.5-1.168.89-1.615.39-.447.867-.792 1.43-1.035.563-.243 1.202-.365 1.915-.365zm0 9.49c.593 0 1.112-.102 1.555-.305.443-.203.813-.495 1.11-.875.297-.38.518-.838.665-1.375.147-.537.22-1.138.22-1.805 0-.66-.073-1.26-.22-1.8-.147-.54-.368-1.002-.665-1.385-.297-.383-.667-.678-1.11-.885-.443-.207-.962-.31-1.555-.31s-1.112.103-1.555.31c-.443.207-.813.502-1.11.885-.297.383-.52.845-.67 1.385-.15.54-.225 1.14-.225 1.8 0 .667.075 1.268.225 1.805.15.537.373.995.67 1.375.297.38.667.672 1.11.875.443.203.962.305 1.555.305zm7.4.62v-8.91l-1.4-.09c-.193-.013-.29-.097-.29-.25v-.39h1.69v-1.26c0-.567.073-1.065.22-1.495.147-.43.353-.788.62-1.075.267-.287.588-.502.965-.645.377-.143.792-.215 1.245-.215.207 0 .415.018.625.055.21.037.395.088.555.155l-.03.46c-.007.093-.07.14-.19.14l-.325-.03c-.137-.02-.305-.03-.505-.03-.327 0-.628.048-.905.145-.277.097-.515.252-.715.465-.2.213-.355.492-.465.835-.11.343-.165.765-.165 1.265v1.23h3.23v.71h-3.21v8.93h-.95zm8.79.16c-.673 0-1.198-.187-1.575-.56-.377-.373-.565-.95-.565-1.73v-6.8h-1.43c-.073 0-.133-.02-.18-.06-.047-.04-.07-.097-.07-.17v-.37l1.7-.12.24-3.56.075-.16c.043-.047.102-.07.175-.07h.45v3.8h3.13v.71h-3.13v6.75c0 .273.035.508.105.705.07.197.167.358.29.485.123.127.268.22.435.28.167.06.347.09.54.09.24 0 .447-.035.62-.105.173-.07.323-.147.45-.23l.31-.23c.08-.07.143-.105.19-.105.053 0 .107.033.16.1l.26.42c-.253.28-.575.505-.965.675-.39.17-.795.255-1.215.255zm3.01-10.11h.73c.093 0 .17.025.23.075.06.05.1.105.12.165l2.51 7.85.11.44.08.42.11-.42.14-.44 2.67-7.92c.047-.147.14-.22.28-.22h.39c.147 0 .243.073.29.22l2.63 7.92c.1.3.18.59.24.87l.085-.425c.03-.143.072-.292.125-.445l2.52-7.85c.053-.16.167-.24.34-.24h.7l-3.33 9.95h-.7c-.107 0-.183-.07-.23-.21l-2.73-8.08-.09-.3-.07-.3-.065.3-.085.3-2.76 8.08c-.04.14-.12.21-.24.21h-.67l-3.33-9.95zm22.49 9.95c-.2 0-.323-.093-.37-.28l-.14-1.27c-.273.267-.545.507-.815.72-.27.213-.552.393-.845.54-.293.147-.61.258-.95.335-.34.077-.713.115-1.12.115-.34 0-.67-.05-.99-.15-.32-.1-.603-.253-.85-.46-.247-.207-.445-.472-.595-.795-.15-.323-.225-.712-.225-1.165 0-.42.12-.81.36-1.17.24-.36.615-.673 1.125-.94.51-.267 1.167-.48 1.97-.64.803-.16 1.768-.253 2.895-.28v-1.04c0-.92-.198-1.628-.595-2.125-.397-.497-.985-.745-1.765-.745-.48 0-.888.067-1.225.2-.337.133-.622.28-.855.44-.233.16-.423.307-.57.44-.147.133-.27.2-.37.2-.133 0-.233-.06-.3-.18l-.17-.29c.52-.52 1.067-.913 1.64-1.18.573-.267 1.223-.4 1.95-.4.533 0 1 .085 1.4.255.4.17.732.413.995.73s.462.7.595 1.15c.133.45.2.952.2 1.505v6.48h-.38zm-4-.53c.387 0 .742-.042 1.065-.125.323-.083.623-.2.9-.35.277-.15.535-.328.775-.535.24-.207.477-.43.71-.67v-2.59c-.947.027-1.762.098-2.445.215-.683.117-1.247.275-1.69.475-.443.2-.77.438-.98.715-.21.277-.315.592-.315.945 0 .333.055.622.165.865.11.243.255.443.435.6.18.157.39.272.63.345.24.073.49.11.75.11zm7.38.53v-9.95h.5c.113 0 .195.023.245.07.05.047.078.127.085.24l.08 2.1c.32-.807.747-1.438 1.28-1.895.533-.457 1.19-.685 1.97-.685.3 0 .577.032.83.095s.493.155.72.275l-.13.66c-.02.107-.087.16-.2.16l-.17-.04-.275-.09-.405-.09c-.16-.027-.343-.04-.55-.04-.753 0-1.372.233-1.855.7-.483.467-.875 1.14-1.175 2.02v6.47h-.95zm11.69-10.11c.56 0 1.078.097 1.555.29.477.193.89.475 1.24.845s.623.825.82 1.365c.197.54.295 1.16.295 1.86 0 .147-.022.247-.065.3-.043.053-.112.08-.205.08h-7.19v.19c0 .747.087 1.403.26 1.97.173.567.42 1.042.74 1.425s.707.672 1.16.865c.453.193.96.29 1.52.29.5 0 .933-.055 1.3-.165.367-.11.675-.233.925-.37.25-.137.448-.26.595-.37.147-.11.253-.165.32-.165.087 0 .153.033.2.1l.26.32c-.16.2-.372.387-.635.56-.263.173-.557.322-.88.445-.323.123-.67.222-1.04.295-.37.073-.742.11-1.115.11-.68 0-1.3-.118-1.86-.355s-1.04-.582-1.44-1.035c-.4-.453-.708-1.008-.925-1.665-.217-.657-.325-1.408-.325-2.255 0-.713.102-1.372.305-1.975s.497-1.123.88-1.56c.383-.437.853-.778 1.41-1.025.557-.247 1.188-.37 1.895-.37zm.01.71c-.513 0-.973.08-1.38.24-.407.16-.758.39-1.055.69-.297.3-.537.66-.72 1.08-.183.42-.305.89-.365 1.41h6.56c0-.533-.073-1.012-.22-1.435-.147-.423-.353-.782-.62-1.075-.267-.293-.587-.518-.96-.675-.373-.157-.787-.235-1.24-.235zm13.04 9.56c-.673 0-1.198-.187-1.575-.56-.377-.373-.565-.95-.565-1.73v-6.8h-1.43c-.073 0-.133-.02-.18-.06-.047-.04-.07-.097-.07-.17v-.37l1.7-.12.24-3.56.075-.16c.043-.047.102-.07.175-.07h.45v3.8h3.13v.71h-3.13v6.75c0 .273.035.508.105.705.07.197.167.358.29.485.123.127.268.22.435.28.167.06.347.09.54.09.24 0 .447-.035.62-.105.173-.07.323-.147.45-.23l.31-.23c.08-.07.143-.105.19-.105.053 0 .107.033.16.1l.26.42c-.253.28-.575.505-.965.675-.39.17-.795.255-1.215.255zm8.2-10.27c.713 0 1.352.122 1.915.365s1.038.588 1.425 1.035c.387.447.682.985.885 1.615.203.63.305 1.335.305 2.115 0 .78-.102 1.483-.305 2.11-.203.627-.498 1.163-.885 1.61-.387.447-.862.79-1.425 1.03-.563.24-1.202.36-1.915.36-.713 0-1.352-.12-1.915-.36s-1.04-.583-1.43-1.03c-.39-.447-.687-.983-.89-1.61-.203-.627-.305-1.33-.305-2.11 0-.78.102-1.485.305-2.115.203-.63.5-1.168.89-1.615.39-.447.867-.792 1.43-1.035.563-.243 1.202-.365 1.915-.365zm0 9.49c.593 0 1.112-.102 1.555-.305.443-.203.813-.495 1.11-.875.297-.38.518-.838.665-1.375.147-.537.22-1.138.22-1.805 0-.66-.073-1.26-.22-1.8-.147-.54-.368-1.002-.665-1.385-.297-.383-.667-.678-1.11-.885-.443-.207-.962-.31-1.555-.31s-1.112.103-1.555.31c-.443.207-.813.502-1.11.885-.297.383-.52.845-.67 1.385-.15.54-.225 1.14-.225 1.8 0 .667.075 1.268.225 1.805.15.537.373.995.67 1.375.297.38.667.672 1.11.875.443.203.962.305 1.555.305zm16.37-8.1c-.047.093-.12.14-.22.14-.073 0-.168-.042-.285-.125-.117-.083-.27-.177-.46-.28-.19-.103-.423-.197-.7-.28-.277-.083-.615-.125-1.015-.125-.36 0-.688.052-.985.155-.297.103-.55.242-.76.415-.21.173-.373.375-.49.605-.117.23-.175.472-.175.725 0 .313.08.573.24.78.16.207.37.383.63.53.26.147.555.273.885.38l1.015.32c.347.107.685.225 1.015.355.33.13.625.292.885.485s.47.43.63.71c.16.28.24.62.24 1.02 0 .433-.078.837-.235 1.21-.157.373-.383.697-.68.97-.297.273-.662.49-1.095.65-.433.16-.927.24-1.48.24-.7 0-1.303-.112-1.81-.335-.507-.223-.96-.515-1.36-.875l.23-.34.11-.12.17-.04c.087 0 .193.053.32.16.127.107.292.222.495.345.203.123.457.238.76.345.303.107.678.16 1.125.16.42 0 .79-.058 1.11-.175.32-.117.587-.275.8-.475.213-.2.375-.435.485-.705.11-.27.165-.555.165-.855 0-.333-.08-.61-.24-.83-.16-.22-.37-.407-.63-.56-.26-.153-.555-.283-.885-.39l-1.02-.32c-.35-.107-.69-.223-1.02-.35-.33-.127-.625-.287-.885-.48s-.47-.428-.63-.705c-.16-.277-.24-.622-.24-1.035 0-.353.077-.693.23-1.02.153-.327.372-.613.655-.86.283-.247.628-.443 1.035-.59.407-.147.863-.22 1.37-.22.607 0 1.145.087 1.615.26.47.173.902.44 1.295.8l-.21.33zm6.87-1.39c.56 0 1.078.097 1.555.29.477.193.89.475 1.24.845s.623.825.82 1.365c.197.54.295 1.16.295 1.86 0 .147-.022.247-.065.3-.043.053-.112.08-.205.08h-7.19v.19c0 .747.087 1.403.26 1.97.173.567.42 1.042.74 1.425s.707.672 1.16.865c.453.193.96.29 1.52.29.5 0 .933-.055 1.3-.165.367-.11.675-.233.925-.37.25-.137.448-.26.595-.37.147-.11.253-.165.32-.165.087 0 .153.033.2.1l.26.32c-.16.2-.372.387-.635.56-.263.173-.557.322-.88.445-.323.123-.67.222-1.04.295-.37.073-.742.11-1.115.11-.68 0-1.3-.118-1.86-.355s-1.04-.582-1.44-1.035c-.4-.453-.708-1.008-.925-1.665-.217-.657-.325-1.408-.325-2.255 0-.713.102-1.372.305-1.975s.497-1.123.88-1.56c.383-.437.853-.778 1.41-1.025.557-.247 1.188-.37 1.895-.37zm.01.71c-.513 0-.973.08-1.38.24-.407.16-.758.39-1.055.69-.297.3-.537.66-.72 1.08-.183.42-.305.89-.365 1.41h6.56c0-.533-.073-1.012-.22-1.435-.147-.423-.353-.782-.62-1.075-.267-.293-.587-.518-.96-.675-.373-.157-.787-.235-1.24-.235zm13.01.78l-.095.085-.125.035c-.067 0-.158-.045-.275-.135-.117-.09-.272-.188-.465-.295-.193-.107-.435-.205-.725-.295s-.642-.135-1.055-.135c-.573 0-1.082.102-1.525.305-.443.203-.817.495-1.12.875-.303.38-.535.84-.695 1.38-.16.54-.24 1.147-.24 1.82 0 .7.082 1.32.245 1.86.163.54.395.995.695 1.365.3.37.663.652 1.09.845.427.193.9.29 1.42.29.48 0 .882-.057 1.205-.17.323-.113.59-.237.8-.37.21-.133.377-.257.5-.37.123-.113.222-.17.295-.17.087 0 .153.033.2.1l.26.32c-.153.2-.347.387-.58.56-.233.173-.497.323-.79.45-.293.127-.612.225-.955.295-.343.07-.702.105-1.075.105-.633 0-1.212-.115-1.735-.345-.523-.23-.973-.563-1.35-1-.377-.437-.67-.972-.88-1.605-.21-.633-.315-1.353-.315-2.16 0-.76.1-1.453.3-2.08.2-.627.492-1.167.875-1.62.383-.453.853-.805 1.41-1.055.557-.25 1.195-.375 1.915-.375.647 0 1.222.103 1.725.31.503.207.942.487 1.315.84l-.25.34zm3.26-1.33v6.36c0 .933.213 1.665.64 2.195.427.53 1.077.795 1.95.795.647 0 1.25-.165 1.81-.495.56-.33 1.063-.788 1.51-1.375v-7.48h.96v9.95h-.53c-.187 0-.283-.087-.29-.26l-.09-1.48c-.46.573-.992 1.033-1.595 1.38s-1.275.52-2.015.52c-.553 0-1.037-.087-1.45-.26-.413-.173-.757-.423-1.03-.75s-.48-.72-.62-1.18c-.14-.46-.21-.98-.21-1.56v-6.36h.96zm10.11 9.95v-9.95h.5c.113 0 .195.023.245.07.05.047.078.127.085.24l.08 2.1c.32-.807.747-1.438 1.28-1.895.533-.457 1.19-.685 1.97-.685.3 0 .577.032.83.095s.493.155.72.275l-.13.66c-.02.107-.087.16-.2.16l-.17-.04-.275-.09-.405-.09c-.16-.027-.343-.04-.55-.04-.753 0-1.372.233-1.855.7-.483.467-.875 1.14-1.175 2.02v6.47h-.95zm11.69-10.11c.56 0 1.078.097 1.555.29.477.193.89.475 1.24.845s.623.825.82 1.365c.197.54.295 1.16.295 1.86 0 .147-.022.247-.065.3-.043.053-.112.08-.205.08h-7.19v.19c0 .747.087 1.403.26 1.97.173.567.42 1.042.74 1.425s.707.672 1.16.865c.453.193.96.29 1.52.29.5 0 .933-.055 1.3-.165.367-.11.675-.233.925-.37.25-.137.448-.26.595-.37.147-.11.253-.165.32-.165.087 0 .153.033.2.1l.26.32c-.16.2-.372.387-.635.56-.263.173-.557.322-.88.445-.323.123-.67.222-1.04.295-.37.073-.742.11-1.115.11-.68 0-1.3-.118-1.86-.355s-1.04-.582-1.44-1.035c-.4-.453-.708-1.008-.925-1.665-.217-.657-.325-1.408-.325-2.255 0-.713.102-1.372.305-1.975s.497-1.123.88-1.56c.383-.437.853-.778 1.41-1.025.557-.247 1.188-.37 1.895-.37zm.01.71c-.513 0-.973.08-1.38.24-.407.16-.758.39-1.055.69-.297.3-.537.66-.72 1.08-.183.42-.305.89-.365 1.41h6.56c0-.533-.073-1.012-.22-1.435-.147-.423-.353-.782-.62-1.075-.267-.293-.587-.518-.96-.675-.373-.157-.787-.235-1.24-.235zm10.8 9.4v-14.15h4.07c.807 0 1.505.08 2.095.24.59.16 1.078.395 1.465.705.387.31.675.688.865 1.135.19.447.285.953.285 1.52 0 .373-.065.733-.195 1.08-.13.347-.318.667-.565.96-.247.293-.548.548-.905.765-.357.217-.765.382-1.225.495 1.113.167 1.97.537 2.57 1.11.6.573.9 1.33.9 2.27 0 .6-.107 1.14-.32 1.62-.213.48-.523.887-.93 1.22-.407.333-.907.588-1.5.765-.593.177-1.267.265-2.02.265h-4.59zm1.02-6.78v5.96h3.55c1.247 0 2.187-.268 2.82-.805s.95-1.292.95-2.265c0-.447-.085-.848-.255-1.205-.17-.357-.415-.66-.735-.91s-.713-.442-1.18-.575c-.467-.133-.997-.2-1.59-.2h-3.56zm0-.75h3.07c.653 0 1.212-.083 1.675-.25.463-.167.843-.387 1.14-.66.297-.273.515-.583.655-.93.14-.347.21-.703.21-1.07 0-.953-.302-1.675-.905-2.165s-1.535-.735-2.795-.735h-3.05v5.81zm12.55-2.42v9.95h-.95v-9.95h.95zm.42-3.43c0 .12-.025.232-.075.335-.05.103-.115.195-.195.275-.08.08-.173.143-.28.19-.107.047-.22.07-.34.07-.12 0-.233-.023-.34-.07-.107-.047-.2-.11-.28-.19-.08-.08-.143-.172-.19-.275-.047-.103-.07-.215-.07-.335 0-.12.023-.235.07-.345.047-.11.11-.205.19-.285.08-.08.173-.143.28-.19.107-.047.22-.07.34-.07.12 0 .233.023.34.07.107.047.2.11.28.19.08.08.145.175.195.285.05.11.075.225.075.345zm5.82 13.54c-.673 0-1.198-.187-1.575-.56-.377-.373-.565-.95-.565-1.73v-6.8h-1.43c-.073 0-.133-.02-.18-.06-.047-.04-.07-.097-.07-.17v-.37l1.7-.12.24-3.56.075-.16c.043-.047.102-.07.175-.07h.45v3.8h3.13v.71h-3.13v6.75c0 .273.035.508.105.705.07.197.167.358.29.485.123.127.268.22.435.28.167.06.347.09.54.09.24 0 .447-.035.62-.105.173-.07.323-.147.45-.23l.31-.23c.08-.07.143-.105.19-.105.053 0 .107.033.16.1l.26.42c-.253.28-.575.505-.965.675-.39.17-.795.255-1.215.255zm10.96-8.78l-.095.085-.125.035c-.067 0-.158-.045-.275-.135-.117-.09-.272-.188-.465-.295-.193-.107-.435-.205-.725-.295s-.642-.135-1.055-.135c-.573 0-1.082.102-1.525.305-.443.203-.817.495-1.12.875-.303.38-.535.84-.695 1.38-.16.54-.24 1.147-.24 1.82 0 .7.082 1.32.245 1.86.163.54.395.995.695 1.365.3.37.663.652 1.09.845.427.193.9.29 1.42.29.48 0 .882-.057 1.205-.17.323-.113.59-.237.8-.37.21-.133.377-.257.5-.37.123-.113.222-.17.295-.17.087 0 .153.033.2.1l.26.32c-.153.2-.347.387-.58.56-.233.173-.497.323-.79.45-.293.127-.612.225-.955.295-.343.07-.702.105-1.075.105-.633 0-1.212-.115-1.735-.345-.523-.23-.973-.563-1.35-1-.377-.437-.67-.972-.88-1.605-.21-.633-.315-1.353-.315-2.16 0-.76.1-1.453.3-2.08.2-.627.492-1.167.875-1.62.383-.453.853-.805 1.41-1.055.557-.25 1.195-.375 1.915-.375.647 0 1.222.103 1.725.31.503.207.942.487 1.315.84l-.25.34zm6.34-1.49c.713 0 1.352.122 1.915.365s1.038.588 1.425 1.035c.387.447.682.985.885 1.615.203.63.305 1.335.305 2.115 0 .78-.102 1.483-.305 2.11-.203.627-.498 1.163-.885 1.61-.387.447-.862.79-1.425 1.03-.563.24-1.202.36-1.915.36-.713 0-1.352-.12-1.915-.36s-1.04-.583-1.43-1.03c-.39-.447-.687-.983-.89-1.61-.203-.627-.305-1.33-.305-2.11 0-.78.102-1.485.305-2.115.203-.63.5-1.168.89-1.615.39-.447.867-.792 1.43-1.035.563-.243 1.202-.365 1.915-.365zm0 9.49c.593 0 1.112-.102 1.555-.305.443-.203.813-.495 1.11-.875.297-.38.518-.838.665-1.375.147-.537.22-1.138.22-1.805 0-.66-.073-1.26-.22-1.8-.147-.54-.368-1.002-.665-1.385-.297-.383-.667-.678-1.11-.885-.443-.207-.962-.31-1.555-.31s-1.112.103-1.555.31c-.443.207-.813.502-1.11.885-.297.383-.52.845-.67 1.385-.15.54-.225 1.14-.225 1.8 0 .667.075 1.268.225 1.805.15.537.373.995.67 1.375.297.38.667.672 1.11.875.443.203.962.305 1.555.305zm8.26-9.33v9.95h-.95v-9.95h.95zm.42-3.43c0 .12-.025.232-.075.335-.05.103-.115.195-.195.275-.08.08-.173.143-.28.19-.107.047-.22.07-.34.07-.12 0-.233-.023-.34-.07-.107-.047-.2-.11-.28-.19-.08-.08-.143-.172-.19-.275-.047-.103-.07-.215-.07-.335 0-.12.023-.235.07-.345.047-.11.11-.205.19-.285.08-.08.173-.143.28-.19.107-.047.22-.07.34-.07.12 0 .233.023.34.07.107.047.2.11.28.19.08.08.145.175.195.285.05.11.075.225.075.345zm3.1 13.38v-9.95h.52c.173 0 .273.083.3.25l.09 1.5c.453-.573.982-1.035 1.585-1.385.603-.35 1.275-.525 2.015-.525.547 0 1.028.087 1.445.26.417.173.762.423 1.035.75.273.327.48.72.62 1.18.14.46.21.98.21 1.56v6.36h-.95v-6.36c0-.933-.213-1.665-.64-2.195-.427-.53-1.08-.795-1.96-.795-.653 0-1.26.168-1.82.505-.56.337-1.06.798-1.5 1.385v7.46h-.95zm14.68 0v-9.95h.52c.173 0 .273.083.3.25l.09 1.44c.193-.273.4-.523.62-.75.22-.227.455-.422.705-.585.25-.163.517-.29.8-.38.283-.09.582-.135.895-.135.727 0 1.307.212 1.74.635.433.423.727 1.012.88 1.765.12-.413.288-.77.505-1.07.217-.3.465-.548.745-.745.28-.197.585-.343.915-.44.33-.097.668-.145 1.015-.145.493 0 .937.082 1.33.245.393.163.728.405 1.005.725.277.32.488.713.635 1.18.147.467.22 1 .22 1.6v6.36h-.96v-6.36c0-.973-.21-1.715-.63-2.225-.42-.51-1.02-.765-1.8-.765-.347 0-.678.063-.995.19-.317.127-.597.315-.84.565-.243.25-.437.562-.58.935-.143.373-.215.807-.215 1.3v6.36h-.95v-6.36c0-.967-.193-1.707-.58-2.22-.387-.513-.95-.77-1.69-.77-.54 0-1.04.162-1.5.485-.46.323-.87.772-1.23 1.345v7.52h-.95zm17.14-9.95v9.95h-.95v-9.95h.95zm.42-3.43c0 .12-.025.232-.075.335-.05.103-.115.195-.195.275-.08.08-.173.143-.28.19-.107.047-.22.07-.34.07-.12 0-.233-.023-.34-.07-.107-.047-.2-.11-.28-.19-.08-.08-.143-.172-.19-.275-.047-.103-.07-.215-.07-.335 0-.12.023-.235.07-.345.047-.11.11-.205.19-.285.08-.08.173-.143.28-.19.107-.047.22-.07.34-.07.12 0 .233.023.34.07.107.047.2.11.28.19.08.08.145.175.195.285.05.11.075.225.075.345zm3.1 13.38v-9.95h.52c.173 0 .273.083.3.25l.09 1.5c.453-.573.982-1.035 1.585-1.385.603-.35 1.275-.525 2.015-.525.547 0 1.028.087 1.445.26.417.173.762.423 1.035.75.273.327.48.72.62 1.18.14.46.21.98.21 1.56v6.36h-.95v-6.36c0-.933-.213-1.665-.64-2.195-.427-.53-1.08-.795-1.96-.795-.653 0-1.26.168-1.82.505-.56.337-1.06.798-1.5 1.385v7.46h-.95zm14.57-10.11c.56 0 1.078.097 1.555.29.477.193.89.475 1.24.845s.623.825.82 1.365c.197.54.295 1.16.295 1.86 0 .147-.022.247-.065.3-.043.053-.112.08-.205.08h-7.19v.19c0 .747.087 1.403.26 1.97.173.567.42 1.042.74 1.425s.707.672 1.16.865c.453.193.96.29 1.52.29.5 0 .933-.055 1.3-.165.367-.11.675-.233.925-.37.25-.137.448-.26.595-.37.147-.11.253-.165.32-.165.087 0 .153.033.2.1l.26.32c-.16.2-.372.387-.635.56-.263.173-.557.322-.88.445-.323.123-.67.222-1.04.295-.37.073-.742.11-1.115.11-.68 0-1.3-.118-1.86-.355s-1.04-.582-1.44-1.035c-.4-.453-.708-1.008-.925-1.665-.217-.657-.325-1.408-.325-2.255 0-.713.102-1.372.305-1.975s.497-1.123.88-1.56c.383-.437.853-.778 1.41-1.025.557-.247 1.188-.37 1.895-.37zm.01.71c-.513 0-.973.08-1.38.24-.407.16-.758.39-1.055.69-.297.3-.537.66-.72 1.08-.183.42-.305.89-.365 1.41h6.56c0-.533-.073-1.012-.22-1.435-.147-.423-.353-.782-.62-1.075-.267-.293-.587-.518-.96-.675-.373-.157-.787-.235-1.24-.235zm6.46 9.4v-9.95h.5c.113 0 .195.023.245.07.05.047.078.127.085.24l.08 2.1c.32-.807.747-1.438 1.28-1.895.533-.457 1.19-.685 1.97-.685.3 0 .577.032.83.095s.493.155.72.275l-.13.66c-.02.107-.087.16-.2.16l-.17-.04-.275-.09-.405-.09c-.16-.027-.343-.04-.55-.04-.753 0-1.372.233-1.855.7-.483.467-.875 1.14-1.175 2.02v6.47h-.95zm13.42-8.72c-.047.093-.12.14-.22.14-.073 0-.168-.042-.285-.125-.117-.083-.27-.177-.46-.28-.19-.103-.423-.197-.7-.28-.277-.083-.615-.125-1.015-.125-.36 0-.688.052-.985.155-.297.103-.55.242-.76.415-.21.173-.373.375-.49.605-.117.23-.175.472-.175.725 0 .313.08.573.24.78.16.207.37.383.63.53.26.147.555.273.885.38l1.015.32c.347.107.685.225 1.015.355.33.13.625.292.885.485s.47.43.63.71c.16.28.24.62.24 1.02 0 .433-.078.837-.235 1.21-.157.373-.383.697-.68.97-.297.273-.662.49-1.095.65-.433.16-.927.24-1.48.24-.7 0-1.303-.112-1.81-.335-.507-.223-.96-.515-1.36-.875l.23-.34.11-.12.17-.04c.087 0 .193.053.32.16.127.107.292.222.495.345.203.123.457.238.76.345.303.107.678.16 1.125.16.42 0 .79-.058 1.11-.175.32-.117.587-.275.8-.475.213-.2.375-.435.485-.705.11-.27.165-.555.165-.855 0-.333-.08-.61-.24-.83-.16-.22-.37-.407-.63-.56-.26-.153-.555-.283-.885-.39l-1.02-.32c-.35-.107-.69-.223-1.02-.35-.33-.127-.625-.287-.885-.48s-.47-.428-.63-.705c-.16-.277-.24-.622-.24-1.035 0-.353.077-.693.23-1.02.153-.327.372-.613.655-.86.283-.247.628-.443 1.035-.59.407-.147.863-.22 1.37-.22.607 0 1.145.087 1.615.26.47.173.902.44 1.295.8l-.21.33zm2.55 7.95c0-.127.023-.247.07-.36.047-.113.112-.212.195-.295.083-.083.18-.15.29-.2.11-.05.232-.075.365-.075.127 0 .247.025.36.075.113.05.212.117.295.2.083.083.15.182.2.295.05.113.075.233.075.36 0 .133-.025.255-.075.365-.05.11-.117.207-.2.29-.083.083-.182.148-.295.195-.113.047-.233.07-.36.07-.26 0-.478-.088-.655-.265-.177-.177-.265-.395-.265-.655z" fill="#8F8F8F" sketch:type="MSShapeGroup"/></g></svg>