<svg xmlns:sketch="http://www.bohemiancoding.com/sketch/ns" xmlns="http://www.w3.org/2000/svg" width="379.5" height="60.5" viewBox="0 0 379.5 60.5"><title>logo_full</title><desc>Created with Sketch.</desc><g sketch:type="MSLayerGroup"><path sketch:type="MSShapeGroup" fill="#00F0DB" d="M41.358 44.466c-.172.396-.352.787-.543 1.161-1.293 2.574-2.718 4.217-3.567 7.908l.885.72.383.956 1.848.306c-.034-3.685 1.282-6.791 1.282-6.791.74-.183 1.493-.783 1.493-.783-1.187.251-2.669.068-2.669.068 1.062-1.995 1.396-3.43 1.396-3.43l-.508-.115zm-27.283 12.497c-.007-.238-.059-.52-.219-.771 0 0 1.514-2.269 2.542-5.317.827.371 2.576-.33 2.649-2.21.075-1.877-.242-4.796 1.38-7.021 1.62-2.232 3.366-3.44 5.65-5.206 1.482-1.146 3.996-3.08 5.576-4.299l-.784-.233-5.689 4.374h-1.989l5.75-4.946-.742-.223-6.009 5.173h-2.017l5.945-5.787-.714-.214-6.167 6.001h-2.061l5.977-6.669-.693-.204-6.16 6.873h-2.167l5.8-7.628-.667-.193-5.952 7.821h-1.956s8.357-13.187 10.003-15.765 3.429-4.842 6.372-5.349c2.975-.511 5.003.278 6.458 2.75.786 1.328 1.729 2.901 2.476 4.129-.756 1.254-1.704 2.255-1.794 3.762-.107 1.732 1.029 2.796 2.172 2.879-.862-.312-1.54-1.354-1.233-2.747.32-1.437 1.434-2.165 2.28-3.33.729-1.004.738-2.476.683-2.964-.053-.497-.59-.874-.59-.874s.016-.984 0-2.058c-.021-1.071.431-1.691.431-1.691s-.013-1.601-.074-3.475c-.051-1.804-.219-2.346-.383-2.587 0 0 .13-.518.616-1.079l.497.46.149-1.033c.316-.221.695-.42 1.172-.563l.153-.041.626.756.383-.953c.574-.058 1.071-.022 1.487.071l.348.994.445-.714c.342.185.558.396.618.561 0 0-.09.6.058 1.564.138.93.54 3.002.54 3.002.557.473 1.192 1.546 1.192 1.546.385 1.918.358 3.409.358 3.409l-.713.687.46 1.656-.595.766.556.618c.037.729-.207 1.458-.207 1.458 1.162.764 1.491 2.594 2.216 5.675.73 3.088 1.38 5.627 1.38 5.627l-1.084.626c1.433 5.349-.024 9.61-1.865 12.42-1.839 2.812-2.945 5.604-2.91 8.097l.9.729.467 1.061 17.371 2.82c.589-3.22 2.046-12.642 2.046-26.621 0-17.477-2.286-27.846-2.286-27.846-.405-1.134-1.167-1.938-2.161-2.183 0 0-10.232-2.308-27.583-2.308-17.352 0-27.584 2.308-27.584 2.308-.707.132-1.831 1.022-2.157 2.172 0 0-2.286 10.783-2.286 27.845 0 12.486 1.224 21.606 1.879 25.601l11.43-1.189zm12.376-3.596l1.595 2.214 5.452-.537c.043-2.684 1.191-6.12 1.677-7.105-3.066.349-6.723-1.236-9.622-.629-.801 5.254-4.872 6.291-6.786 6.003l-1.367 2.362.951.87 6.661-.658c-.421-.706-1.194-1.956-1.883-2.808 1.134-.762 2.582-2.239 3.166-4.997 1.254-.127 2.67.108 4.167.361l.223.034c-.249 1.807-1.727 4.121-4.234 4.89z"/><path sketch:type="MSShapeGroup" fill="#fff" d="M85.885 11.51c0-1.656.064-3.189.342-3.409.346-.251 2.41-.406 4.317-.406 2.004 0 3.883.187 4.228.406.344.249.375 1.565.375 3.409v29.919c0 .561.127 1.373.284 1.531.185.187 1.033.284 1.56.284h14.271c.938 0 2.5 0 2.691.248.154.251.31 2.379.31 3.943 0 1.563-.155 3.505-.31 3.756-.191.252-1.223.313-2.691.313h-21.153c-1.501 0-3.223-.28-3.596-.628-.376-.343-.627-2.128-.627-3.6v-35.766h-.001zm35.176 18.775c-.034-11.42 1.502-19.527 2.602-20.744.87-.973 6.096-2.411 14.859-2.411 9.105 0 14.396 1.503 15.303 2.471 1.063 1.096 2.565 9.326 2.565 20.684v17.4c0 1.658-.063 3.191-.345 3.413-.281.219-2.283.406-4.224.406-1.908 0-3.814-.188-4.099-.406-.344-.252-.408-1.535-.408-3.413v-7.698c0-1.19-.188-2.35-.28-2.474-.092-.09-1.284-.278-2.472-.278h-11.672c-1.187 0-2.375.154-2.47.278-.092.124-.281 1.317-.281 2.474v7.698c0 1.626-.064 3.191-.379 3.413-.279.219-2.252.406-4.192.406-1.905 0-3.848-.188-4.133-.406-.312-.222-.374-1.563-.374-3.413v-17.4zm23.5-.31c1.189 0 2.38-.189 2.472-.313.093-.094.28-1.315.28-2.599 0-4.912-.564-10.546-1.406-11.327-.625-.562-3.379-1.252-7.196-1.252-3.915 0-6.574.75-7.167 1.252-.879.718-1.406 6.415-1.406 11.298 0 1.377.188 2.534.281 2.628.092.094 1.283.313 2.47.313h11.672zm22.531-18.774c.188-1.942.597-2.912.85-3.1.4-.312 2.628-.406 4.067-.406 1.848 0 3.784.155 4.192.436.312.219.722.939 1.563 2.534l10.109 20.529c.186.309.435.341.626 0l10.047-20.498c.841-1.563 1.279-2.315 1.592-2.536.438-.313 2.186-.467 3.879-.467 1.476 0 3.477.126 3.911.406.188.154.628.97.847 3.16l3.816 37.271c.158 1.281.219 2.128.033 2.378-.221.248-1.788.719-4.383 1.003-1.284.122-2.319.154-3.066.154-.63 0-1.032-.096-1.158-.22-.19-.188-.345-1.125-.471-2.753l-2.157-26.349c-.028-.404-.433-.498-.625-.125l-9.011 18.562c-.156.248-.593 1.031-.785 1.119-.22.158-2.001.316-3.315.316-1.345 0-2.754-.158-3.066-.347-.188-.094-.565-.654-.814-1.127l-8.574-18.212c-.186-.378-.562-.279-.593.064l-2.408 26.224c-.128 1.405-.284 2.473-.501 2.692-.097.122-.597.154-1.314.154-.688 0-1.598-.062-2.602-.154-1.688-.189-3.787-.687-4.067-1-.217-.253-.127-1.438 0-2.753l3.378-36.955zm52.927 19.084c-.032-11.42 1.5-19.527 2.595-20.744.874-.973 6.101-2.411 14.865-2.411 9.105 0 14.395 1.503 15.299 2.471 1.067 1.096 2.568 9.326 2.568 20.684v17.4c0 1.658-.061 3.191-.343 3.413-.282.219-2.285.406-4.225.406-1.912 0-3.821-.188-4.102-.406-.345-.252-.409-1.535-.409-3.413v-7.698c0-1.19-.189-2.35-.28-2.474-.096-.09-1.28-.278-2.472-.278h-11.674c-1.188 0-2.377.154-2.47.278-.094.124-.284 1.317-.284 2.474v7.698c0 1.626-.06 3.191-.378 3.413-.278.219-2.25.406-4.191.406-1.907 0-3.846-.188-4.132-.406-.312-.222-.372-1.563-.372-3.413v-17.4h.005zm23.499-.31c1.189 0 2.376-.189 2.471-.313.092-.094.282-1.315.282-2.599 0-4.912-.564-10.546-1.405-11.327-.629-.562-3.379-1.252-7.196-1.252-3.911 0-6.573.75-7.172 1.252-.877.718-1.409 6.415-1.409 11.298 0 1.377.192 2.534.284 2.628.093.094 1.283.313 2.47.313h11.675zm20.659 16.082c.309-1.655.811-3.345 1.093-3.409.345-.1 7.136 1.312 13.987 1.312 4.006 0 7.258-.372 7.858-.904.499-.469.747-2.256.747-4.036 0-1.533-.187-2.784-.625-3.225-.63-.626-6.196-1.847-11.299-3.349-6.567-1.875-9.516-3.001-10.263-3.875-.812-.972-1.595-5.413-1.595-9.361 0-4.504.688-8.604 1.501-9.512.841-.939 5.475-2.566 14.109-2.566 9.045 0 14.396 1.848 14.615 2.19.123.223-.031 1.942-.344 3.287-.312 1.469-.938 3.504-1.439 3.504-.438.031-6.353-1.471-11.768-1.471-4.35 0-7.323.624-7.822 1.063-.41.374-.629 1.719-.629 3.942 0 1.535.156 2.627.597 3.006.654.529 2.753 1.033 9.14 2.626 5.94 1.469 11.67 3.413 12.48 4.289.908 1.032 1.44 6.7 1.44 9.605 0 4.32-.938 9.608-1.848 10.518-.654.654-6.442 2.377-15.702 2.377-7.236 0-14.239-1.755-14.459-2.035-.182-.221-.091-2.253.226-3.976zm39.084 0c.312-1.655.814-3.345 1.097-3.409.34-.1 7.134 1.312 13.985 1.312 4.005 0 7.262-.372 7.858-.904.499-.469.747-2.256.747-4.036 0-1.533-.187-2.784-.625-3.225-.626-.626-6.194-1.847-11.295-3.349-6.571-1.875-9.514-3.001-10.267-3.875-.811-.972-1.597-5.413-1.597-9.361 0-4.504.688-8.604 1.501-9.512.849-.939 5.477-2.566 14.113-2.566 9.045 0 14.399 1.848 14.615 2.19.125.223-.033 1.942-.348 3.287-.312 1.469-.938 3.504-1.436 3.504-.438.031-6.353-1.471-11.77-1.471-4.35 0-7.322.624-7.822 1.063-.41.374-.626 1.719-.626 3.942 0 1.535.153 2.627.59 3.006.658.529 2.754 1.033 9.138 2.626 5.944 1.469 11.673 3.413 12.485 4.289.909 1.032 1.441 6.7 1.441 9.605 0 4.32-.942 9.608-1.848 10.518-.658.654-6.449 2.377-15.71 2.377-7.227 0-14.238-1.755-14.458-2.035-.173-.221-.081-2.253.232-3.976zm39.591-34.547c0-1.874.062-3.126.374-3.409.312-.251 1.909-.406 3.911-.406 2.16 0 3.911.187 4.195.406.28.282.34 1.656.34 3.409v18.18c0 5.854.879 11.738 1.535 12.644.565.75 3.255 1.255 7.32 1.255 4.01 0 7.076-.69 7.7-1.287.94-.999 1.439-6.884 1.439-12.611v-18.183c0-1.718.063-3.126.376-3.409.28-.22 2.098-.406 4.164-.406 2.098 0 3.599.187 3.908.406.347.282.379 1.535.379 3.409v19.122c0 9.482-1.413 17.9-2.506 18.995-.938.909-5.881 2.44-15.051 2.44-9.454 0-14.644-1.409-15.553-2.414-1.097-1.217-2.533-9.668-2.533-19.025v-19.116h.002z"/></g></svg>