<?xml version="1.0" encoding="UTF-8" standalone="no"?>
<svg width="802px" height="177px" viewBox="0 0 802 177" version="1.1" xmlns="http://www.w3.org/2000/svg" xmlns:xlink="http://www.w3.org/1999/xlink" xmlns:sketch="http://www.bohemiancoding.com/sketch/ns">
    <!-- Generator: Sketch Beta 3.2.1 (9971) - http://www.bohemiancoding.com/sketch -->
    <title>Logo on dark</title>
    <desc>Created with Sketch Beta.</desc>
    <defs></defs>
    <g id="Page-1" stroke="none" stroke-width="1" fill="none" fill-rule="evenodd" sketch:type="MSPage">
        <g id="Logo" sketch:type="MSArtboardGroup" transform="translate(-117.000000, -424.000000)">
            <g id="Logo-on-dark" sketch:type="MSLayerGroup" transform="translate(117.000000, 424.000000)">
                <g id="Mark" sketch:type="MSShapeGroup">
                    <path d="M29.1192443,147.874695 L77.1676823,175.602957 C79.5595398,176.983274 83.4396447,176.983744 85.8323177,175.602957 L133.880756,147.874695 L133.880756,147.874695 C128.055491,145.433957 123.24843,141.045781 120.2738,135.524395 L85.8245606,155.371289 C83.4361717,156.747287 79.5578525,156.743845 77.1754394,155.371289 L42.7261999,135.524395 C39.7515705,141.045781 34.9445094,145.433957 29.1192443,147.874695 Z M3,99.7811669 L3,47.1987257 C3,44.4371515 4.94046021,41.0786336 7.33231767,39.6983171 L54.6854319,12.3713195 C54.236871,14.3421013 54,16.3933885 54,18.5 C54,22.7702906 54.9733252,26.8132489 56.7102282,30.4191276 L24.3245606,49.077157 C21.9421475,50.4497128 20,53.8058734 20,56.5656621 L20,95.040214 C19.5033865,95.0135191 19.003272,95 18.5,95 C12.7506107,95 7.41330905,96.7643573 3,99.7811669 Z M160,99.7811669 L160,47.1987257 C160,44.4380928 158.060355,41.0791042 155.667682,39.6983171 L108.314568,12.3713195 L108.314568,12.3713195 C108.763129,14.3421013 109,16.3933885 109,18.5 C109,22.7702906 108.026675,26.8132489 106.289772,30.4191276 L138.675439,49.077157 C141.063828,50.4531555 143,53.8064426 143,56.5656621 L143,95.040214 C143.496614,95.0135191 143.996728,95 144.5,95 C150.249389,95 155.586691,96.7643573 160,99.7811669 L160,99.7811669 Z" id="Polygon-4" fill="#00ABF0"></path>
                    <circle id="Oval-7" fill="#FFFFFF" cx="81.5" cy="18.5" r="18.5"></circle>
                    <circle id="Oval-9" fill="#FFFFFF" cx="144.5" cy="122.5" r="18.5"></circle>
                    <circle id="Oval-11" fill="#FFFFFF" cx="18.5" cy="122.5" r="18.5"></circle>
                </g>
                <path d="M246.808162,132.220897 C245.996581,132.220897 245.590796,131.815113 245.590796,131.003531 L245.590796,60.2745586 C245.590796,59.7876097 245.347325,59.5441389 244.860376,59.5441389 L222.217366,59.5441389 C221.405785,59.5441389 221,59.1383543 221,58.3267728 L221,50.6573661 C221,49.8457847 221.405785,49.44 222.217366,49.44 L279.798784,49.44 C280.610366,49.44 281.016151,49.8457847 281.016151,50.6573661 L281.016151,58.3267728 C281.016151,59.1383543 280.610366,59.5441389 279.798784,59.5441389 L257.155774,59.5441389 C256.668825,59.5441389 256.425355,59.7876097 256.425355,60.2745586 L256.425355,131.003531 C256.425355,131.815113 256.01957,132.220897 255.207988,132.220897 L246.808162,132.220897 Z M288.320347,132.220897 C287.508766,132.220897 287.102981,131.815113 287.102981,131.003531 L287.102981,75.1264255 C287.102981,74.314844 287.508766,73.9090593 288.320347,73.9090593 L296.111491,73.9090593 C296.923072,73.9090593 297.328857,74.314844 297.328857,75.1264255 L297.328857,81.0915195 L297.450593,81.0915195 C298.749124,78.5756169 300.676601,76.5264044 303.233082,74.9438205 C305.789564,73.3612367 309.015552,72.5699566 312.911143,72.5699566 C315.26473,72.5699566 317.476256,72.955452 319.545789,73.7264544 C321.615321,74.4974568 323.380485,75.5727862 324.841331,76.9524747 C325.409438,77.5205817 325.490595,78.0886802 325.084805,78.6567873 L320.58055,84.6218813 C320.093601,85.2711465 319.525503,85.3523034 318.876237,84.8653546 C317.496549,83.9726149 316.076303,83.282781 314.615456,82.7958321 C313.154609,82.3088832 311.572049,82.0654124 309.867728,82.0654124 C305.40403,82.0654124 302.198331,83.6276834 300.250535,86.7522721 C298.30274,89.8768608 297.328857,93.995575 297.328857,99.1085384 L297.328857,131.003531 C297.328857,131.815113 296.923072,132.220897 296.111491,132.220897 L288.320347,132.220897 Z M369.396932,132.220897 C368.585351,132.220897 368.179566,131.815113 368.179566,131.003531 L368.179566,125.890593 L368.057829,125.890593 C366.678141,128.081863 364.568061,129.907894 361.727525,131.368741 C358.88699,132.829588 355.234928,133.56 350.77123,133.56 C348.011853,133.56 345.435121,133.194794 343.040955,132.46437 C340.64679,131.733947 338.577288,130.638329 336.832388,129.177482 C335.087488,127.716635 333.70782,125.890604 332.693343,123.699334 C331.678866,121.508064 331.171635,118.951621 331.171635,116.029928 C331.171635,109.861908 333.180269,105.31712 337.197598,102.395427 C341.214926,99.4737336 346.794465,98.0129088 353.936382,98.0129088 L367.205673,98.0129088 C367.692622,98.0129088 367.936093,97.769438 367.936093,97.2824891 L367.936093,93.0217077 C367.936093,88.9638003 366.962209,86.0421508 365.014414,84.2566715 C363.066618,82.4711922 359.373978,81.578466 353.936382,81.578466 C350.608898,81.578466 347.849562,81.9639614 345.658292,82.7349638 C343.467022,83.5059662 341.519256,84.5001386 339.814935,85.7175109 C339.084512,86.2856179 338.516413,86.2450394 338.110622,85.5957742 L334.823734,79.99589 C334.499101,79.3466248 334.580258,78.7785263 335.067207,78.2915774 C337.258477,76.5872563 340.017813,75.2075885 343.345297,74.1525326 C346.672781,73.0974766 350.527735,72.5699566 354.910275,72.5699566 C363.188406,72.5699566 369.072284,74.091649 372.562084,77.1350796 C376.051884,80.1785102 377.796758,85.2711076 377.796758,92.4130246 L377.796758,131.003531 C377.796758,131.815113 377.390974,132.220897 376.579392,132.220897 L369.396932,132.220897 Z M353.205962,124.794964 C357.831977,124.794964 361.44346,123.800791 364.040521,121.812417 C366.637582,119.824042 367.936093,117.003839 367.936093,113.351722 L367.936093,106.899682 C367.936093,106.412733 367.692622,106.169262 367.205673,106.169262 L355.518958,106.169262 C350.405995,106.169262 346.713354,106.919964 344.440926,108.421389 C342.168498,109.922815 341.032301,112.337234 341.032301,115.664718 C341.032301,118.667569 342.087341,120.939963 344.197453,122.481968 C346.307565,124.023973 349.310371,124.794964 353.205962,124.794964 L353.205962,124.794964 Z M433.795601,132.220897 C432.984019,132.220897 432.578234,131.815113 432.578234,131.003531 L432.578234,125.403647 L432.456498,125.403647 C431.076809,127.757233 429.068175,129.705 426.430535,131.247004 C423.792896,132.789009 420.282858,133.56 415.900318,133.56 C410.787355,133.56 406.526616,132.383225 403.117974,130.029638 C399.709332,127.676052 397.274624,124.186304 395.813777,119.560289 C395.002196,117.206703 394.454386,114.771995 394.170333,112.256093 C393.886279,109.74019 393.744255,106.656227 393.744255,103.00411 C393.744255,99.3519933 393.886279,96.2883192 394.170333,93.8129957 C394.454386,91.3376721 395.002196,88.9232534 395.813777,86.5696671 C397.274624,81.9436527 399.709332,78.4539047 403.117974,76.1003184 C406.526616,73.7467321 410.787355,72.5699566 415.900318,72.5699566 C420.282858,72.5699566 423.792896,73.3206582 426.430535,74.8220839 C429.068175,76.3235097 431.076809,78.2509868 432.456498,80.6045731 L432.578234,80.6045731 L432.578234,50.6573661 C432.578234,49.8457847 432.984019,49.44 433.795601,49.44 L441.586744,49.44 C442.398325,49.44 442.80411,49.8457847 442.80411,50.6573661 L442.80411,131.003531 C442.80411,131.815113 442.398325,132.220897 441.586744,132.220897 L433.795601,132.220897 Z M418.335051,124.064544 C424.990019,124.064544 429.291336,121.102316 431.239132,115.177771 C431.726081,113.798083 432.070998,112.154655 432.273893,110.247438 C432.476788,108.340222 432.578234,105.925803 432.578234,103.00411 C432.578234,100.082417 432.476788,97.6882872 432.273893,95.8216498 C432.070998,93.9550124 431.726081,92.2912953 431.239132,90.8304486 C429.291336,84.987062 424.990019,82.0654124 418.335051,82.0654124 C411.842399,82.0654124 407.58166,84.987062 405.552706,90.8304486 C405.065757,92.4536116 404.72084,94.2390641 404.517945,96.1868596 C404.31505,98.1346552 404.213603,100.407049 404.213603,103.00411 C404.213603,105.682329 404.31505,107.995301 404.517945,109.943097 C404.72084,111.890893 405.065757,113.635767 405.552706,115.177771 C407.58166,121.102316 411.842399,124.064544 418.335051,124.064544 L418.335051,124.064544 Z M484.559768,133.56 C478.635224,133.56 473.664362,132.200621 469.647033,129.481823 C465.629705,126.763025 462.809502,122.847204 461.186339,117.73424 C460.537073,115.867603 460.050132,113.798101 459.725499,111.525673 C459.400867,109.253245 459.238553,106.412752 459.238553,103.00411 C459.238553,99.5954678 459.380577,96.7346859 459.664631,94.4216787 C459.948684,92.1086715 460.415337,90.059459 461.064602,88.2739797 C462.687765,83.1610164 465.507968,79.2654837 469.525297,76.5872648 C473.542625,73.9090459 478.351173,72.5699566 483.951085,72.5699566 C489.550998,72.5699566 494.359546,73.9293352 498.376874,76.6481331 C502.394202,79.3669311 505.214406,83.2421746 506.837569,88.2739797 C507.162201,89.2478775 507.425961,90.2420499 507.628857,91.2565268 C507.831752,92.2710036 508.014355,93.4274899 508.176671,94.7260203 C508.338988,96.0245506 508.460723,97.5056646 508.541881,99.1694067 C508.623039,100.833149 508.663618,102.760626 508.663618,104.951896 C508.663618,105.763477 508.217255,106.169262 507.324515,106.169262 L470.438321,106.169262 C469.951372,106.169262 469.707902,106.412733 469.707902,106.899682 C469.707902,108.522845 469.789059,109.861934 469.951375,110.91699 C470.113691,111.972046 470.357162,112.986507 470.681795,113.960405 C471.818009,117.369047 473.64404,119.905202 476.159942,121.568944 C478.675845,123.232686 481.759808,124.064544 485.411925,124.064544 C488.901725,124.064544 491.863953,123.455867 494.298698,122.238495 C496.733442,121.021123 498.762365,119.479141 500.385528,117.612504 C501.034793,116.963238 501.64347,116.882082 502.211577,117.36903 L507.202779,121.873285 C507.770886,122.360234 507.811464,122.928332 507.324515,123.577598 C504.970929,126.499291 501.866676,128.89342 498.011664,130.760058 C494.156652,132.626695 489.672732,133.56 484.559768,133.56 L484.559768,133.56 Z M497.463849,98.0129088 C497.950798,98.0129088 498.194269,97.769438 498.194269,97.2824891 C498.194269,94.6042703 497.91022,92.4130331 497.342113,90.708712 C496.368215,87.7870187 494.724787,85.5349138 492.41178,83.95233 C490.098773,82.3697461 487.278569,81.578466 483.951085,81.578466 C480.623601,81.578466 477.803398,82.3697461 475.490391,83.95233 C473.177384,85.5349138 471.533956,87.7870187 470.560058,90.708712 C469.991951,92.4130331 469.707902,94.6042703 469.707902,97.2824891 C469.707902,97.769438 469.951372,98.0129088 470.438321,98.0129088 L497.463849,98.0129088 Z M525.341534,50.6573661 C525.341534,49.8457847 525.747319,49.44 526.5589,49.44 L555.897424,49.44 C564.256713,49.44 570.505797,51.4080556 574.644863,55.3442258 C578.783928,59.2803959 580.85343,64.5758857 580.85343,71.2308538 C580.85343,76.1003427 579.818679,79.9958754 577.749146,82.9175687 C575.679613,85.8392621 573.021724,87.9493423 569.775398,89.2478726 L569.775398,89.4913459 C571.155086,89.8971366 572.595622,90.6072598 574.097048,91.6217366 C575.598473,92.6362135 576.957852,93.9347244 578.175224,95.5173082 C579.392597,97.0998921 580.386769,98.9867908 581.157771,101.178061 C581.928774,103.369331 582.314269,105.844617 582.314269,108.603994 C582.314269,116.395176 579.981007,122.279054 575.314414,126.255803 C570.64782,130.232552 563.972663,132.220897 555.288741,132.220897 L526.5589,132.220897 C525.747319,132.220897 525.341534,131.815113 525.341534,131.003531 L525.341534,50.6573661 Z M555.653951,85.2305644 C560.279965,85.2305644 563.85087,84.0537889 566.366773,81.7002026 C568.882675,79.3466163 570.140608,76.2220745 570.140608,72.3264834 C570.140608,68.3497341 568.882675,65.1846138 566.366773,62.8310275 C563.85087,60.4774412 560.279965,59.3006657 555.653951,59.3006657 L536.906512,59.3006657 C536.419563,59.3006657 536.176093,59.5441365 536.176093,60.0310854 L536.176093,84.5001447 C536.176093,84.9870936 536.419563,85.2305644 536.906512,85.2305644 L555.653951,85.2305644 Z M536.176093,121.629812 C536.176093,122.116761 536.419563,122.360232 536.906512,122.360232 L556.262634,122.360232 C561.213281,122.360232 564.987078,121.122588 567.584139,118.647265 C570.1812,116.171941 571.479711,112.864796 571.479711,108.725731 C571.479711,104.586665 570.1812,101.27952 567.584139,98.8041968 C564.987078,96.3288733 561.213281,95.0912301 556.262634,95.0912301 L536.906512,95.0912301 C536.419563,95.0912301 536.176093,95.3347009 536.176093,95.8216498 L536.176093,121.629812 Z M612.626686,132.82958 C607.513723,132.82958 603.861661,131.591937 601.670391,129.116614 C599.479121,126.64129 598.383502,122.766047 598.383502,117.490767 L598.383502,50.6573661 C598.383502,49.8457847 598.789287,49.44 599.600868,49.44 L607.392012,49.44 C608.203593,49.44 608.609378,49.8457847 608.609378,50.6573661 L608.609378,116.882084 C608.609378,119.316828 609.07603,121.000835 610.009349,121.934153 C610.942667,122.867472 612.423781,123.334124 614.452735,123.334124 L616.765731,123.334124 C617.577312,123.334124 617.983097,123.739909 617.983097,124.551491 L617.983097,131.612214 C617.983097,132.423796 617.577312,132.82958 616.765731,132.82958 L612.626686,132.82958 Z M653.773661,133.56 C648.092591,133.56 643.243464,132.180332 639.226136,129.420955 C635.208808,126.661578 632.388604,122.806624 630.765441,117.855977 C630.116176,115.827023 629.629235,113.696654 629.304602,111.464805 C628.979969,109.232956 628.817656,106.412752 628.817656,103.00411 C628.817656,99.5954678 628.979969,96.7955536 629.304602,94.6042836 C629.629235,92.4130136 630.116176,90.3029334 630.765441,88.2739797 C632.388604,83.2421746 635.208808,79.3669311 639.226136,76.6481331 C643.243464,73.9293352 648.092591,72.5699566 653.773661,72.5699566 C659.454732,72.5699566 664.303858,73.9293352 668.321187,76.6481331 C672.338515,79.3669311 675.158718,83.2421746 676.781881,88.2739797 C677.431147,90.3029334 677.918088,92.4130136 678.242721,94.6042836 C678.567353,96.7955536 678.729667,99.5954678 678.729667,103.00411 C678.729667,106.412752 678.567353,109.232956 678.242721,111.464805 C677.918088,113.696654 677.431147,115.827023 676.781881,117.855977 C675.158718,122.806624 672.338515,126.661578 668.321187,129.420955 C664.303858,132.180332 659.454732,133.56 653.773661,133.56 L653.773661,133.56 Z M653.773661,124.064544 C657.019987,124.064544 659.779323,123.273264 662.051751,121.69068 C664.324179,120.108096 665.947318,117.855991 666.921216,114.934298 C667.408165,113.311135 667.753081,111.627129 667.955977,109.882229 C668.158872,108.137328 668.260318,105.844645 668.260318,103.00411 C668.260318,100.163575 668.158872,97.8911807 667.955977,96.1868596 C667.753081,94.4825385 667.408165,92.8188214 666.921216,91.1956585 C665.947318,88.2739651 664.324179,86.0218603 662.051751,84.4392764 C659.779323,82.8566925 657.019987,82.0654124 653.773661,82.0654124 C650.527335,82.0654124 647.768,82.8566925 645.495572,84.4392764 C643.223143,86.0218603 641.600005,88.2739651 640.626107,91.1956585 C640.139158,92.8188214 639.794241,94.4825385 639.591346,96.1868596 C639.388451,97.8911807 639.287004,100.163575 639.287004,103.00411 C639.287004,105.844645 639.388451,108.137328 639.591346,109.882229 C639.794241,111.627129 640.139158,113.311135 640.626107,114.934298 C641.600005,117.855991 643.223143,120.108096 645.495572,121.69068 C647.768,123.273264 650.527335,124.064544 653.773661,124.064544 L653.773661,124.064544 Z M691.633748,103.00411 C691.633748,99.7577841 691.796062,96.9375807 692.120695,94.5434153 C692.445327,92.14925 692.89169,90.059459 693.459797,88.2739797 C695.08296,83.1610164 697.923453,79.2654837 701.98136,76.5872648 C706.039268,73.9090459 710.868105,72.5699566 716.468017,72.5699566 C720.931716,72.5699566 724.847537,73.4423936 728.215601,75.1872938 C731.583664,76.932194 734.32271,79.3466127 736.432822,82.4306223 C736.838613,83.0798875 736.716877,83.647986 736.067612,84.1349349 L730.711201,88.517453 C730.061936,89.0044019 729.493837,88.9638234 729.006889,88.3957164 C727.302567,86.2856045 725.517115,84.7030443 723.650478,83.6479884 C721.78384,82.5929325 719.389711,82.0654124 716.468017,82.0654124 C713.30285,82.0654124 710.584092,82.8161141 708.311664,84.3175398 C706.039236,85.8189655 704.416097,88.1116488 703.4422,91.1956585 C702.955251,92.7376633 702.610334,94.4419588 702.407438,96.3085962 C702.204543,98.1752336 702.103097,100.407049 702.103097,103.00411 C702.103097,105.601171 702.204543,107.853276 702.407438,109.760492 C702.610334,111.667709 702.955251,113.392293 703.4422,114.934298 C704.416097,118.018308 706.039236,120.310991 708.311664,121.812417 C710.584092,123.313843 713.30285,124.064544 716.468017,124.064544 C719.389711,124.064544 721.78384,123.537024 723.650478,122.481968 C725.517115,121.426912 727.302567,119.844352 729.006889,117.73424 C729.493837,117.166133 730.061936,117.125555 730.711201,117.612504 L736.067612,121.995022 C736.716877,122.481971 736.838613,123.050069 736.432822,123.699334 C734.32271,126.783344 731.583664,129.197763 728.215601,130.942663 C724.847537,132.687563 720.931716,133.56 716.468017,133.56 C710.868105,133.56 706.039268,132.220911 701.98136,129.542692 C697.923453,126.864473 695.08296,122.96894 693.459797,117.855977 C692.89169,116.070498 692.445327,113.980707 692.120695,111.586541 C691.796062,109.192376 691.633748,106.331594 691.633748,103.00411 L691.633748,103.00411 Z M791.457771,132.220897 C790.64619,132.220897 789.996934,131.815113 789.509986,131.003531 L772.953806,103.856266 L762.849667,115.664718 L762.849667,131.003531 C762.849667,131.815113 762.443882,132.220897 761.632301,132.220897 L753.841158,132.220897 C753.029576,132.220897 752.623792,131.815113 752.623792,131.003531 L752.623792,50.6573661 C752.623792,49.8457847 753.029576,49.44 753.841158,49.44 L761.632301,49.44 C762.443882,49.44 762.849667,49.8457847 762.849667,50.6573661 L762.849667,102.151954 L785.857887,75.0046889 C786.507152,74.2742655 787.237565,73.9090593 788.049146,73.9090593 L797.057656,73.9090593 C797.463446,73.9090593 797.706917,74.0307947 797.788075,74.2742692 C797.869233,74.5177436 797.788076,74.8017929 797.544602,75.1264255 L779.64932,95.9433864 L801.1967,131.003531 C801.359017,131.247006 801.379306,131.510766 801.257569,131.794819 C801.135832,132.078873 800.872071,132.220897 800.466281,132.220897 L791.457771,132.220897 Z" id="TradeBlock" fill="#FFFFFF" sketch:type="MSShapeGroup"></path>
            </g>
        </g>
    </g>
</svg>